<svg width="24" height="23" viewBox="0 0 24 23" fill="none" xmlns="http://www.w3.org/2000/svg">
<path d="M9 9H10.5V10.5H9V9ZM13.5 18H15V19.5H13.5V18ZM18 9H19.5V10.5H18V9ZM13.5 9H15V10.5H13.5V9ZM9 12H10.5V13.5H9V12ZM4.5 12H6V13.5H4.5V12ZM18 12H19.5V13.5H18V12ZM13.5 12H15V13.5H13.5V12ZM9 15H10.5V16.5H9V15ZM4.5 15H6V16.5H4.5V15ZM18 15H19.5V16.5H18V15ZM13.5 15H15V16.5H13.5V15ZM9 18H10.5V19.5H9V18ZM4.5 18H6V19.5H4.5V18ZM24 1.5V22.5H0V1.5H4.5V0H6V1.5H18V0H19.5V1.5H24ZM1.5 3V6H22.5V3H19.5V4.5H18V3H6V4.5H4.5V3H1.5ZM22.5 21V7.5H1.5V21H22.5Z" fill="white"/>
</svg>
