<svg width="17" height="4" viewBox="0 0 17 4" xmlns="http://www.w3.org/2000/svg">
<path fill-rule="evenodd" clip-rule="evenodd" d="M2.42554 4C3.53011 4 4.42554 3.10457 4.42554 2C4.42554 0.89543 3.53011 0 2.42554 0C1.32097 0 0.425537 0.89543 0.425537 2C0.425537 3.10457 1.32097 4 2.42554 4ZM8.42554 4C9.53011 4 10.4255 3.10457 10.4255 2C10.4255 0.89543 9.53011 0 8.42554 0C7.32097 0 6.42554 0.89543 6.42554 2C6.42554 3.10457 7.32097 4 8.42554 4ZM16.4255 2C16.4255 3.10457 15.5301 4 14.4255 4C13.321 4 12.4255 3.10457 12.4255 2C12.4255 0.89543 13.321 0 14.4255 0C15.5301 0 16.4255 0.89543 16.4255 2Z"/>
</svg>
