<svg width="10" height="10" viewBox="0 0 10 10" fill="none" xmlns="http://www.w3.org/2000/svg">
<path d="M5.00001 4.29292L4.64646 3.93936L1.35357 0.646449C1.35356 0.646447 1.35356 0.646445 1.35356 0.646443C1.15829 0.451187 0.841717 0.451186 0.646449 0.64644C0.646446 0.646443 0.646443 0.646446 0.64644 0.646449M5.00001 4.29292L0.292891 1.70711C-0.0976302 1.31658 -0.0976302 0.683422 0.292891 0.292891L0.64644 0.646449M5.00001 4.29292L5.35357 3.93936L8.64647 0.646444L8.64648 0.646435C8.84172 0.451188 9.15833 0.451188 9.35356 0.646435C9.54881 0.841698 9.54881 1.15829 9.35357 1.35356C9.35357 1.35357 9.35356 1.35357 9.35356 1.35357L6.06066 4.64646L5.70711 5.00001L6.06066 5.35357L9.35357 8.64647C9.54881 8.84171 9.54881 9.15833 9.35357 9.35357C9.15833 9.54881 8.84171 9.54881 8.64647 9.35357L5.35357 6.06066L5.00001 5.70711L4.64646 6.06066L1.35357 9.35356C1.35357 9.35356 1.35357 9.35357 1.35356 9.35357C1.15829 9.54881 0.841698 9.54881 0.646431 9.35356C0.451188 9.15833 0.451188 8.84172 0.646435 8.64648L0.646444 8.64647L3.93936 5.35357L4.29292 5.00001L3.93936 4.64646L0.646449 1.35357L5.00001 4.29292ZM0.64644 0.646449C0.451186 0.841717 0.451187 1.15829 0.646443 1.35356L0.64644 0.646449Z" fill="#E0E0E0" stroke="#E0E0E0"/>
</svg>
