<svg width="24" height="18" viewBox="0 0 24 18" fill="none" xmlns="http://www.w3.org/2000/svg">
<path d="M21.6797 5.0625C22.0312 5.25781 22.3516 5.5 22.6406 5.78906C22.9297 6.07031 23.1719 6.38281 23.3672 6.72656C23.5703 7.0625 23.7266 7.42578 23.8359 7.81641C23.9453 8.19922 24 8.59375 24 9H22.5C22.5 8.59375 22.418 8.20703 22.2539 7.83984C22.0977 7.47266 21.8828 7.15625 21.6094 6.89062C21.3438 6.61719 21.0273 6.40234 20.6602 6.24609C20.293 6.08203 19.9062 6 19.5 6C19.0859 6 18.6953 6.08203 18.3281 6.24609C17.9688 6.40234 17.6523 6.61719 17.3789 6.89062C17.1133 7.15625 16.8984 7.47266 16.7344 7.83984C16.5781 8.20703 16.5 8.59375 16.5 9C16.5 9.71094 16.3359 10.3867 16.0078 11.0273C15.6875 11.668 15.2422 12.1992 14.6719 12.6211C15.1797 12.8789 15.6367 13.1992 16.043 13.582C16.457 13.957 16.8086 14.3789 17.0977 14.8477C17.3867 15.3086 17.6094 15.8086 17.7656 16.3477C17.9219 16.8789 18 17.4297 18 18H16.5C16.5 17.3828 16.3789 16.8008 16.1367 16.2539C15.9023 15.707 15.582 15.2305 15.1758 14.8242C14.7695 14.418 14.293 14.0977 13.7461 13.8633C13.1992 13.6211 12.6172 13.5 12 13.5C11.3828 13.5 10.8008 13.6211 10.2539 13.8633C9.70703 14.0977 9.23047 14.418 8.82422 14.8242C8.41797 15.2305 8.09375 15.707 7.85156 16.2539C7.61719 16.8008 7.5 17.3828 7.5 18H6C6 17.4297 6.07812 16.8789 6.23438 16.3477C6.39062 15.8086 6.61328 15.3086 6.90234 14.8477C7.19141 14.3789 7.53906 13.957 7.94531 13.582C8.35938 13.1992 8.82031 12.8789 9.32812 12.6211C8.75781 12.1992 8.30859 11.668 7.98047 11.0273C7.66016 10.3867 7.5 9.71094 7.5 9C7.5 8.59375 7.41797 8.20703 7.25391 7.83984C7.09766 7.47266 6.88281 7.15625 6.60938 6.89062C6.34375 6.61719 6.02734 6.40234 5.66016 6.24609C5.29297 6.08203 4.90625 6 4.5 6C4.08594 6 3.69531 6.08203 3.32812 6.24609C2.96875 6.40234 2.65234 6.61719 2.37891 6.89062C2.11328 7.15625 1.89844 7.47266 1.73438 7.83984C1.57812 8.20703 1.5 8.59375 1.5 9H0C0 8.59375 0.0546875 8.19922 0.164062 7.81641C0.273438 7.42578 0.425781 7.0625 0.621094 6.72656C0.824219 6.38281 1.07031 6.07031 1.35938 5.78906C1.64844 5.5 1.96875 5.25781 2.32031 5.0625C2.0625 4.78906 1.85938 4.47266 1.71094 4.11328C1.57031 3.75391 1.5 3.38281 1.5 3C1.5 2.59375 1.57812 2.20703 1.73438 1.83984C1.89844 1.47266 2.11328 1.15625 2.37891 0.890625C2.65234 0.617188 2.96875 0.402344 3.32812 0.246094C3.69531 0.0820312 4.08594 0 4.5 0C4.90625 0 5.29297 0.0820312 5.66016 0.246094C6.02734 0.402344 6.34375 0.617188 6.60938 0.890625C6.88281 1.15625 7.09766 1.47266 7.25391 1.83984C7.41797 2.20703 7.5 2.59375 7.5 3C7.5 3.38281 7.42578 3.75391 7.27734 4.11328C7.13672 4.47266 6.9375 4.78906 6.67969 5.0625C7.32031 5.41406 7.84375 5.89844 8.25 6.51562C8.67188 5.89062 9.21094 5.39844 9.86719 5.03906C10.5312 4.67969 11.2422 4.5 12 4.5C12.7578 4.5 13.4648 4.67969 14.1211 5.03906C14.7852 5.39844 15.3281 5.89062 15.75 6.51562C16.1562 5.89844 16.6797 5.41406 17.3203 5.0625C17.0625 4.78906 16.8594 4.47266 16.7109 4.11328C16.5703 3.75391 16.5 3.38281 16.5 3C16.5 2.59375 16.5781 2.20703 16.7344 1.83984C16.8984 1.47266 17.1133 1.15625 17.3789 0.890625C17.6523 0.617188 17.9688 0.402344 18.3281 0.246094C18.6953 0.0820312 19.0859 0 19.5 0C19.9062 0 20.293 0.0820312 20.6602 0.246094C21.0273 0.402344 21.3438 0.617188 21.6094 0.890625C21.8828 1.15625 22.0977 1.47266 22.2539 1.83984C22.418 2.20703 22.5 2.59375 22.5 3C22.5 3.38281 22.4258 3.75391 22.2773 4.11328C22.1367 4.47266 21.9375 4.78906 21.6797 5.0625ZM3 3C3 3.21094 3.03906 3.40625 3.11719 3.58594C3.19531 3.76562 3.30078 3.92578 3.43359 4.06641C3.57422 4.19922 3.73438 4.30469 3.91406 4.38281C4.09375 4.46094 4.28906 4.5 4.5 4.5C4.71094 4.5 4.90625 4.46094 5.08594 4.38281C5.26562 4.30469 5.42188 4.19922 5.55469 4.06641C5.69531 3.92578 5.80469 3.76562 5.88281 3.58594C5.96094 3.40625 6 3.21094 6 3C6 2.78906 5.96094 2.59375 5.88281 2.41406C5.80469 2.23438 5.69531 2.07812 5.55469 1.94531C5.42188 1.80469 5.26562 1.69531 5.08594 1.61719C4.90625 1.53906 4.71094 1.5 4.5 1.5C4.28906 1.5 4.09375 1.53906 3.91406 1.61719C3.73438 1.69531 3.57422 1.80469 3.43359 1.94531C3.30078 2.07812 3.19531 2.23438 3.11719 2.41406C3.03906 2.59375 3 2.78906 3 3ZM12 12C12.4062 12 12.793 11.9219 13.1602 11.7656C13.5273 11.6016 13.8438 11.3867 14.1094 11.1211C14.3828 10.8477 14.5977 10.5312 14.7539 10.1719C14.918 9.80469 15 9.41406 15 9C15 8.59375 14.918 8.20703 14.7539 7.83984C14.5977 7.47266 14.3828 7.15625 14.1094 6.89062C13.8438 6.61719 13.5273 6.40234 13.1602 6.24609C12.793 6.08203 12.4062 6 12 6C11.5859 6 11.1953 6.08203 10.8281 6.24609C10.4688 6.40234 10.1523 6.61719 9.87891 6.89062C9.61328 7.15625 9.39844 7.47266 9.23438 7.83984C9.07812 8.20703 9 8.59375 9 9C9 9.41406 9.07812 9.80469 9.23438 10.1719C9.39844 10.5312 9.61328 10.8477 9.87891 11.1211C10.1523 11.3867 10.4688 11.6016 10.8281 11.7656C11.1953 11.9219 11.5859 12 12 12ZM18 3C18 3.21094 18.0391 3.40625 18.1172 3.58594C18.1953 3.76562 18.3008 3.92578 18.4336 4.06641C18.5742 4.19922 18.7344 4.30469 18.9141 4.38281C19.0938 4.46094 19.2891 4.5 19.5 4.5C19.7109 4.5 19.9062 4.46094 20.0859 4.38281C20.2656 4.30469 20.4219 4.19922 20.5547 4.06641C20.6953 3.92578 20.8047 3.76562 20.8828 3.58594C20.9609 3.40625 21 3.21094 21 3C21 2.78906 20.9609 2.59375 20.8828 2.41406C20.8047 2.23438 20.6953 2.07812 20.5547 1.94531C20.4219 1.80469 20.2656 1.69531 20.0859 1.61719C19.9062 1.53906 19.7109 1.5 19.5 1.5C19.2891 1.5 19.0938 1.53906 18.9141 1.61719C18.7344 1.69531 18.5742 1.80469 18.4336 1.94531C18.3008 2.07812 18.1953 2.23438 18.1172 2.41406C18.0391 2.59375 18 2.78906 18 3Z" fill="white"/>
</svg>
