<?xml version="1.0" encoding="utf-8"?><svg viewBox="0 0 68 68" xmlns="http://www.w3.org/2000/svg" xmlns:xlink="http://www.w3.org/1999/xlink"><style>:root>svg{display:none}:root>svg:target{display:block}</style><svg fill="none" viewBox="0 0 14 14" id="add" xmlns="http://www.w3.org/2000/svg"><path fill-rule="evenodd" clip-rule="evenodd" d="M7 0a1 1 0 011 1v5h5a1 1 0 110 2H8v5a1 1 0 11-2 0V8H1a1 1 0 110-2h5V1a1 1 0 011-1z" fill="#fff"/></svg><svg fill="none" viewBox="0 0 9 13" id="arrow-left" xmlns="http://www.w3.org/2000/svg"><path d="M1.5 12l6-5.5-6-5.5"/></svg><svg fill="none" viewBox="0 0 24 23" id="calendar" xmlns="http://www.w3.org/2000/svg"><path d="M9 9h1.5v1.5H9V9zm4.5 9H15v1.5h-1.5V18zM18 9h1.5v1.5H18V9zm-4.5 0H15v1.5h-1.5V9zM9 12h1.5v1.5H9V12zm-4.5 0H6v1.5H4.5V12zM18 12h1.5v1.5H18V12zm-4.5 0H15v1.5h-1.5V12zM9 15h1.5v1.5H9V15zm-4.5 0H6v1.5H4.5V15zM18 15h1.5v1.5H18V15zm-4.5 0H15v1.5h-1.5V15zM9 18h1.5v1.5H9V18zm-4.5 0H6v1.5H4.5V18zM24 1.5v21H0v-21h4.5V0H6v1.5h12V0h1.5v1.5H24zM1.5 3v3h21V3h-3v1.5H18V3H6v1.5H4.5V3h-3zm21 18V7.5h-21V21h21z" fill="#fff"/></svg><svg fill="none" viewBox="0 0 20 28" id="calendar-arrow" xmlns="http://www.w3.org/2000/svg"><path d="M18.925 1.188L1.745 14.065l17.18 12.876" stroke="#2C2C2C" stroke-width="2" stroke-linecap="round" stroke-linejoin="round"/></svg><svg fill="none" viewBox="0 0 9 13" id="calendar-arrow-small" xmlns="http://www.w3.org/2000/svg"><path d="M7.5 1l-6 5.5 6 5.5" stroke="#2C2C2C" stroke-width="2" stroke-linecap="round" stroke-linejoin="round"/></svg><svg fill="none" viewBox="0 0 16 16" id="cancel_selection" xmlns="http://www.w3.org/2000/svg"><rect width="16" height="16" rx="4" fill="#18A0FB"/><path d="M4 8h8" stroke="#fff" stroke-width="1.5" stroke-linecap="round" stroke-linejoin="round"/></svg><svg fill="none" viewBox="0 0 16 16" id="checked" xmlns="http://www.w3.org/2000/svg"><rect width="16" height="16" rx="4" fill="#18A0FB"/><path d="M4 7.5l3 3L12.5 5" stroke="#fff" stroke-width="1.5" stroke-linecap="round" stroke-linejoin="round"/></svg><svg viewBox="0 0 17 4" id="dots" xmlns="http://www.w3.org/2000/svg"><path fill-rule="evenodd" clip-rule="evenodd" d="M2.426 4a2 2 0 100-4 2 2 0 000 4zm6 0a2 2 0 100-4 2 2 0 000 4zm8-2a2 2 0 11-4 0 2 2 0 014 0z"/></svg><svg fill="currentColor" class="ibi ibi-pencil-square" viewBox="0 0 16 16" id="edit" xmlns="http://www.w3.org/2000/svg"><path d="M15.502 1.94a.5.5 0 010 .706L14.459 3.69l-2-2L13.502.646a.5.5 0 01.707 0l1.293 1.293zm-1.75 2.456l-2-2L4.939 9.21a.5.5 0 00-.121.196l-.805 2.414a.25.25 0 00.316.316l2.414-.805a.5.5 0 00.196-.12l6.813-6.814z"/><path fill-rule="evenodd" d="M1 13.5A1.5 1.5 0 002.5 15h11a1.5 1.5 0 001.5-1.5v-6a.5.5 0 00-1 0v6a.5.5 0 01-.5.5h-11a.5.5 0 01-.5-.5v-11a.5.5 0 01.5-.5H9a.5.5 0 000-1H2.5A1.5 1.5 0 001 2.5v11z"/></svg><svg fill="none" viewBox="0 0 16 16" id="info" xmlns="http://www.w3.org/2000/svg"><path fill-rule="evenodd" clip-rule="evenodd" d="M14 8A6 6 0 112 8a6 6 0 0112 0zm1 0A7 7 0 111 8a7 7 0 0114 0zm-7.737-.78v1.59h1.04v-.92c.227-.04.447-.11.66-.21.214-.107.404-.243.57-.41.174-.167.31-.367.41-.6.107-.24.16-.51.16-.81 0-.293-.05-.56-.15-.8a1.646 1.646 0 00-.43-.62 1.914 1.914 0 00-.68-.4 2.68 2.68 0 00-.89-.14c-.32 0-.603.047-.85.14-.246.087-.46.207-.64.36-.18.147-.33.317-.45.51-.113.193-.2.393-.26.6l.95.38c.074-.3.21-.547.41-.74.2-.193.467-.29.8-.29.314 0 .564.087.75.26.187.167.28.403.28.71v.14c0 .4-.146.703-.44.91-.286.2-.7.313-1.24.34zm-.03 3.72c.12.12.307.18.56.18.254 0 .437-.06.55-.18a.67.67 0 00.18-.48v-.17c0-.193-.06-.35-.18-.47-.113-.127-.296-.19-.55-.19-.253 0-.44.063-.56.19a.657.657 0 00-.17.47v.17c0 .193.057.353.17.48z" fill="#18A0FB"/></svg><svg fill="none" viewBox="0 0 24 18" id="respondents" xmlns="http://www.w3.org/2000/svg"><path d="M21.68 5.063c.351.195.672.437.96.726.29.281.532.594.727.938.203.335.36.699.469 1.09.11.382.164.777.164 1.183h-1.5c0-.406-.082-.793-.246-1.16a2.878 2.878 0 00-.645-.95 2.879 2.879 0 00-.949-.644A2.813 2.813 0 0019.5 6a2.84 2.84 0 00-1.172.246 3.05 3.05 0 00-1.594 1.594A2.932 2.932 0 0016.5 9c0 .71-.164 1.387-.492 2.027a4.402 4.402 0 01-1.336 1.594c.508.258.965.578 1.371.961a5.83 5.83 0 011.055 1.266c.289.46.511.96.668 1.5.156.53.234 1.082.234 1.652h-1.5c0-.617-.121-1.2-.363-1.746a4.516 4.516 0 00-.961-1.43 4.516 4.516 0 00-1.43-.96A4.264 4.264 0 0012 13.5c-.617 0-1.2.121-1.746.363a4.516 4.516 0 00-1.43.961c-.406.406-.73.883-.972 1.43A4.386 4.386 0 007.5 18H6c0-.57.078-1.121.234-1.652.157-.54.38-1.04.668-1.5a6.082 6.082 0 012.426-2.227A4.474 4.474 0 017.5 9c0-.406-.082-.793-.246-1.16a2.878 2.878 0 00-.645-.95 2.878 2.878 0 00-.949-.644A2.812 2.812 0 004.5 6a2.84 2.84 0 00-1.172.246A3.049 3.049 0 001.734 7.84 2.932 2.932 0 001.5 9H0c0-.406.055-.8.164-1.184.11-.39.262-.753.457-1.09a4.49 4.49 0 01.738-.937c.29-.289.61-.531.961-.726a3.089 3.089 0 01-.61-.95 3.03 3.03 0 01.024-2.273A3.049 3.049 0 013.328.246 2.84 2.84 0 014.5 0c.406 0 .793.082 1.16.246.367.156.684.371.95.645.273.265.488.582.644.949a2.89 2.89 0 01.023 2.273c-.14.36-.34.676-.597.95.64.351 1.164.835 1.57 1.453a4.58 4.58 0 011.617-1.477A4.413 4.413 0 0112 4.5c.758 0 1.465.18 2.121.54a4.55 4.55 0 011.629 1.476 4.375 4.375 0 011.57-1.454 3.09 3.09 0 01-.61-.949 3.03 3.03 0 01.024-2.273A3.05 3.05 0 0118.328.246 2.84 2.84 0 0119.5 0c.406 0 .793.082 1.16.246.367.156.684.371.95.645.273.265.488.582.644.949a2.888 2.888 0 01.023 2.273c-.14.36-.34.676-.597.95zM3 3c0 .21.04.406.117.586.078.18.184.34.317.48.14.133.3.239.48.317.18.078.375.117.586.117.21 0 .406-.04.586-.117a1.546 1.546 0 00.797-.797C5.96 3.406 6 3.21 6 3a1.412 1.412 0 00-.445-1.055A1.412 1.412 0 004.5 1.5c-.21 0-.406.04-.586.117-.18.078-.34.188-.48.328-.133.133-.239.29-.317.47C3.04 2.593 3 2.788 3 3zm9 9c.406 0 .793-.078 1.16-.234a3.049 3.049 0 001.594-1.594A2.84 2.84 0 0015 9c0-.406-.082-.793-.246-1.16a2.878 2.878 0 00-.645-.95 2.879 2.879 0 00-.949-.644A2.813 2.813 0 0012 6a2.84 2.84 0 00-1.172.246A3.05 3.05 0 009.234 7.84 2.932 2.932 0 009 9c0 .414.078.805.234 1.172.164.36.38.676.645.95.273.265.59.48.95.644A2.96 2.96 0 0012 12zm6-9c0 .21.04.406.117.586.078.18.184.34.317.48.14.133.3.239.48.317.18.078.375.117.586.117.21 0 .406-.04.586-.117a1.546 1.546 0 00.797-.797C20.96 3.406 21 3.21 21 3a1.412 1.412 0 00-.445-1.055A1.412 1.412 0 0019.5 1.5c-.21 0-.406.04-.586.117-.18.078-.34.188-.48.328-.133.133-.239.29-.317.47C18.04 2.593 18 2.788 18 3z" fill="#fff"/></svg><svg fill="none" viewBox="0 0 15 15" id="search" xmlns="http://www.w3.org/2000/svg"><path d="M10.483 9.186l-.245.345.3.299 3.816 3.816a.5.5 0 11-.707.707L9.83 10.538l-.299-.299-.345.245a5.5 5.5 0 111.297-1.297zM6 1.5a4.5 4.5 0 100 9 4.5 4.5 0 000-9z" fill="#2C2C2C" stroke="#2C2C2C"/></svg><svg fill="none" viewBox="0 0 12 6" id="select-arrow" xmlns="http://www.w3.org/2000/svg"><path d="M5.293 5.707l-4.44-4.44a.5.5 0 01.354-.853h9.586a.5.5 0 01.353.854L6.707 5.707a1 1 0 01-1.414 0z" fill="#2C2C2C"/></svg><svg fill="none" viewBox="0 0 24 24" id="settings" xmlns="http://www.w3.org/2000/svg"><path d="M20.895 11.578v.211a1.911 1.911 0 010 .422v.21l3.035 1.888-1.864 4.488-3.48-.797c-.188.203-.383.398-.586.586l.797 3.48-4.488 1.864-1.887-3.035c-.07 0-.14.003-.211.011h-.421a1.913 1.913 0 00-.212-.011L9.691 23.93l-4.488-1.864.797-3.48A10.371 10.371 0 015.414 18l-3.48.797L.07 14.309l3.035-1.887c0-.07-.003-.14-.011-.211V12v-.21c.008-.071.011-.142.011-.212L.07 9.691l1.864-4.488L5.414 6c.188-.203.383-.398.586-.586l-.797-3.48L9.691.07l1.887 3.035h.211a1.909 1.909 0 01.422 0h.21L14.31.07l4.488 1.864L18 5.414c.203.188.398.383.586.586l3.48-.797 1.864 4.488-3.035 1.887zm-1.372 1.524l.047-.551a6.781 6.781 0 000-1.114c-.015-.187-.03-.37-.047-.55l2.766-1.723-1.008-2.437-3.175.738a9.551 9.551 0 00-.75-.82c-.25-.25-.524-.5-.82-.75l.737-3.176-2.437-1.008-1.734 2.766a154 154 0 00-.551-.047 6.63 6.63 0 00-1.114 0 154 154 0 01-.55.047L9.164 1.71 6.727 2.719l.738 3.176c-.297.242-.57.492-.82.75-.25.25-.5.523-.75.82l-3.176-.738L1.71 9.164l2.766 1.734-.047.563a6.355 6.355 0 000 1.101 154 154 0 00.047.551L1.71 14.836l1.008 2.437 3.176-.738c.242.297.488.57.738.82.258.25.535.5.832.75l-.738 3.176 2.437 1.008 1.734-2.766.551.047a6.644 6.644 0 001.102 0c.187-.015.375-.03.562-.047l1.723 2.766 2.437-1.008-.738-3.175c.297-.243.57-.489.82-.739.25-.258.5-.535.75-.832l3.176.738 1.008-2.437-2.766-1.734zM12 7.594c.61 0 1.18.117 1.71.351.54.227 1.009.54 1.407.938.399.398.711.867.938 1.406A4.19 4.19 0 0116.406 12c0 .61-.117 1.184-.351 1.723-.227.53-.54.996-.938 1.394a4.51 4.51 0 01-1.406.95 4.314 4.314 0 01-1.711.34 4.4 4.4 0 01-1.723-.34 4.55 4.55 0 01-1.394-.95 4.549 4.549 0 01-.95-1.394A4.4 4.4 0 017.594 12c0-.61.114-1.18.34-1.71a4.51 4.51 0 01.95-1.407c.398-.399.863-.711 1.394-.938A4.274 4.274 0 0112 7.594zm0 7.5c.43 0 .832-.078 1.207-.235a3.18 3.18 0 00.984-.668c.282-.28.5-.609.657-.984.164-.375.246-.777.246-1.207 0-.43-.082-.832-.246-1.207a3.02 3.02 0 00-1.641-1.64A2.978 2.978 0 0012 8.905c-.43 0-.832.082-1.207.246a3.02 3.02 0 00-.984.657 3.18 3.18 0 00-.668.984A3.107 3.107 0 008.906 12c0 .43.078.832.235 1.207a3.18 3.18 0 001.652 1.652c.375.157.777.235 1.207.235z" fill="#fff"/></svg><svg fill="none" viewBox="0 0 10 10" id="tag-close" xmlns="http://www.w3.org/2000/svg"><path d="M5 4.293l-.354-.354L1.354.646s0 0 0 0a.5.5 0 00-.708 0M5 4.293L.293 1.707a1 1 0 010-1.414l.353.353M5 4.293l.354-.354L8.646.646h0a.5.5 0 01.708.708s0 0 0 0L6.06 4.646 5.707 5l.354.354 3.293 3.292a.5.5 0 01-.708.708L5.354 6.06 5 5.707l-.354.354-3.292 3.293s0 0 0 0a.5.5 0 01-.708-.708h0L3.94 5.354 4.293 5l-.354-.354L.646 1.354 5 4.293zM.646.646a.5.5 0 000 .708V.646z" fill="#E0E0E0" stroke="#E0E0E0"/></svg><svg fill="none" viewBox="0 0 68 68" id="upload" xmlns="http://www.w3.org/2000/svg"><g opacity=".3" stroke="#2C2C2C" stroke-width="2" stroke-linecap="round" stroke-linejoin="round"><path d="M34 59.5c14.083 0 25.5-11.417 25.5-25.5S48.083 8.5 34 8.5 8.5 19.917 8.5 34 19.917 59.5 34 59.5zM34 46.75v-25.5M34 21.25l-9.563 9.563M34 21.25l9.563 9.563"/></g></svg></svg>